<?xml version="1.0" encoding="utf-8"?>
<!-- Generator: Adobe Illustrator 26.3.1, SVG Export Plug-In . SVG Version: 6.00 Build 0)  -->
<svg version="1.1" id="Camada_1" xmlns="http://www.w3.org/2000/svg" xmlns:xlink="http://www.w3.org/1999/xlink" x="0px" y="0px"
	 viewBox="0 0 24 24" style="enable-background:new 0 0 24 24;" xml:space="preserve">
<style type="text/css">
	.st0{fill-rule:evenodd;clip-rule:evenodd;fill:#C5C5C5;}
</style>
<path class="st0" d="M0,15V6l1.5-1.5H9L10.5,6v7.5H18l1.5,1.5v7.5L18,24h-7.5H9H1.5L0,22.5V15z M9,13.5V6H1.5v7.5H9z M9,15H1.5v7.5
	H9V15z M10.5,22.5H18V15h-7.5V22.5z"/>
<path class="st0" d="M22.2,3.8L24,4.2v2.1l-1.8,0.4l1,1.5l-1.5,1.5l-1.5-1l-0.4,1.8h-2.1l-0.4-1.8l-1.5,1l-1.5-1.5l1-1.5l-1.8-0.4
	V4.2l1.8-0.4l-1-1.5l1.5-1.5l1.5,1L17.7,0h2.1l0.4,1.8l1.5-1l1.5,1.5L22.2,3.8z M21.5,6l1.8-0.4V4.8l-1.8-0.4l-0.2-0.6l1-1.5
	l-0.6-0.6l-1.5,1l-0.6-0.2l-0.4-1.8h-0.9L18,2.5l-0.6,0.2l-1.5-1l-0.6,0.6l1,1.5l-0.2,0.6l-1.8,0.4v0.9L16.1,6l0.2,0.6l-1,1.5
	l0.6,0.6l1.5-1L18,8l0.4,1.8h0.9L19.6,8l0.6-0.2l1.5,1l0.6-0.6l-1-1.5L21.5,6z M17.9,4c0.2-0.2,0.5-0.3,0.8-0.3
	c0.4,0,0.8,0.2,1.1,0.4c0.3,0.3,0.4,0.7,0.4,1.1c0,0.3-0.1,0.6-0.3,0.8c-0.2,0.2-0.4,0.4-0.7,0.6c-0.3,0.1-0.6,0.1-0.9,0.1
	c-0.3-0.1-0.6-0.2-0.8-0.4c-0.2-0.2-0.4-0.5-0.4-0.8c-0.1-0.3,0-0.6,0.1-0.9C17.5,4.4,17.7,4.2,17.9,4z M18.4,5.9
	C18.5,6,18.6,6,18.8,6c0.1,0,0.2,0,0.3-0.1c0.1,0,0.2-0.1,0.2-0.2c0.1-0.1,0.1-0.2,0.2-0.2c0-0.1,0.1-0.2,0.1-0.3
	c0-0.1,0-0.3-0.1-0.4c-0.1-0.1-0.2-0.2-0.3-0.3c-0.1-0.1-0.3-0.1-0.4,0s-0.3,0.1-0.4,0.2C18.1,4.8,18.1,5,18,5.1c0,0.1,0,0.3,0,0.4
	C18.1,5.7,18.2,5.8,18.4,5.9z"/>
</svg>
